<?xml version="1.0" encoding="UTF-8"?>
<svg xmlns="http://www.w3.org/2000/svg" width="64" height="64">
  <path fill="none" stroke="#d4af37" stroke-width="2"
  d="M15,15
L15,1 5,1 5,10 10,10 10,5 1,5 1,15 15,15 L49,15
L63,15 63,5 54,5 54,10 59,10 59,1 49,1 49,15 L49,49
L49,63 59,63 59,54 54,54 54,59 63,59 63,49 49,49 L15,49
L1,49 1,59 10,59 10,54 5,54 5,63 15,63 15,49 Z
M15,15m1.25,-4l8,0 M15,15m1.25,-8l4,0
M15,15m-4,1.25l0,8 M15,15m-8,1.25l0,4
M49,15m-1.25,-4l-8,0 M49,15m-1.25,-8l-4,0
M49,15m4,1.25l0,8 M49,15m8,1.25l0,4
M49,49m4,-1.25l0,-8 M49,49m8,-1.25l0,-4
M49,49m-1.25,4l-8,0 M49,49m-1.25,8l-4,0
M15,49m1.25,4l8,0 M15,49m1.25,8l4,0
M15,49m-4,-1.25l0,-8 M15,49m-8,-1.25l0,-4" />
</svg>
